<?xml version="1.0" encoding="UTF-8"?><svg xmlns="http://www.w3.org/2000/svg" viewBox="0 0 625.08 189.7"><defs><style>.d{opacity:.3;}.d,.e,.f{fill:#fff;}.d,.f{stroke:#1e2124;}.d,.f,.g,.h{stroke-width:.5px;}.d,.f,.h{stroke-miterlimit:10;}.g{stroke-linecap:round;stroke-linejoin:round;}.g,.h{fill:none;stroke:#000;}</style></defs><g id="a"/><g id="b"><g id="c"><g><rect class="f" x=".25" y=".25" width="624.58" height="189.2"/><polygon class="d" points="421.59 178.9 403.31 189.45 221.76 189.45 203.49 178.9 276.28 136.88 312.54 115.94 348.8 136.88 421.59 178.9"/><polygon class="f" points="421.59 94.85 312.54 157.81 203.49 94.85 312.54 31.89 421.59 94.85"/><g><g><polyline class="h" points="270.17 108.6 270.17 120.13 289.09 120.13"/><line class="h" x1="291.5" y1="108.6" x2="270.17" y2="120.13"/></g><g><polyline class="h" points="354.91 108.6 354.91 120.13 335.99 120.13"/><line class="h" x1="333.58" y1="108.6" x2="354.91" y2="120.13"/></g><g><polyline class="h" points="270.17 78.86 270.17 67.33 289.09 67.33"/><line class="h" x1="291.5" y1="78.86" x2="270.17" y2="67.33"/></g><g><polyline class="h" points="354.91 78.86 354.91 67.33 335.99 67.33"/><line class="h" x1="333.58" y1="78.86" x2="354.91" y2="67.33"/></g></g><g><g><path class="e" d="M331.16,73.66v5.77l-3.7,3.49-.72,2.4-2.74-.82c1.28-4.42,.64-8.42-1.94-9.91-2.68-1.53-6.62,.04-9.84,3.59l-2.06-2.03h.01l1.97-2.07,1.17-4.95,5-2.89h.01l.64,1.97,.53,1.62,1.95-.19,3.45-4.04c1.19,.67,2.36,1.35,3.54,2.03l-1.31,3.7-.48,1.31,.82,1.8,3.7-.78Z"/><polygon class="e" points="331.16 73.66 327.46 74.44 326.64 72.63 327.12 71.32 331.16 73.66"/><path class="e" d="M326.64,85.67l1.79,2.95c-1.17,2.05-2.35,4.08-3.54,6.1l-3.44-.05-3.63-.49c1.56-1.31,3.03-3.07,4.23-5.16,.86-1.5,1.5-3.02,1.94-4.5l2.74,.82-.1,.34Z"/><polygon class="e" points="324.89 65.59 321.44 69.63 318.96 68.2 318.32 66.23 318.3 66.23 315.82 64.8 318.36 61.81 324.89 65.59"/><path class="e" d="M322.06,74.6c2.58,1.49,3.22,5.49,1.94,9.91-.44,1.49-1.08,3-1.94,4.5-1.2,2.09-2.68,3.85-4.23,5.16-2.87,2.43-6.02,3.33-8.26,2.05-3.14-1.82-2.92-6.89-1.92-10,.05-.18,.12-.34,.18-.51,.41-1.3,1-2.62,1.75-3.9,.75-1.3,1.6-2.46,2.51-3.47l.14-.15c3.22-3.55,7.17-5.12,9.84-3.59Zm.26,8.89c.33-1.65,.31-3.62-.57-5.1-1.3-1.86-2.93-1.92-4.91-1.21-3.7,1.53-6.59,5.91-7.44,9.7-.7,3.03-.14,5.69,1.68,6.74,2.62,1.52,6.87-.93,9.49-5.46,.91-1.73,1.32-2.76,1.76-4.67Z"/><path class="e" d="M321.74,78.38c.89,1.49,.9,3.45,.57,5.1-.44,1.91-.85,2.93-1.76,4.67-2.62,4.53-6.87,6.97-9.49,5.46-1.82-1.05-2.37-3.71-1.68-6.74,.85-3.79,3.74-8.18,7.44-9.7,1.98-.71,3.62-.64,4.91,1.21Zm-2.8,5.65c.04-.44,.03-.93-.1-1.35-.08-.42-.44-.94-.81-1.15-1.23-.71-3.23,.45-4.46,2.58-1.23,2.14-1.23,4.45,0,5.16,.38,.25,.93,.27,1.36,.14,.63-.14,1.52-.68,1.94-1.19,1.04-1,1.95-2.78,2.06-4.19Z"/><path class="e" d="M321.46,94.66l-1.97,2.07-1.17,4.95c-1.67,.96-3.33,1.92-5.01,2.88l-1.17-3.59-1.97,.2-.9,1.05-2.55,2.99c-1.17-.68-2.35-1.35-3.52-2.03l1.77-5.02-.81-1.79-3.7,.76v-5.76l3.69-3.51h.01l.74-2.47,2.74,.81c-1,3.11-1.21,8.19,1.92,10,2.24,1.28,5.39,.38,8.26-2.05l3.63,.49Z"/><polygon class="e" points="318.3 66.23 313.31 69.13 306.76 65.35 311.76 62.47 315.82 64.8 318.3 66.23"/><polygon class="e" points="313.31 69.13 312.13 74.08 312.12 74.08 305.58 70.3 306.76 65.35 313.31 69.13"/><polygon class="e" points="312.13 100.98 313.31 104.57 309.27 102.24 310.17 101.19 312.13 100.98"/><path class="e" d="M312.21,78.19l-.14,.15c-.91,1.01-1.76,2.17-2.51,3.47-.75,1.28-1.34,2.61-1.75,3.9-.05,.16-.12,.33-.18,.51l-2.74-.81,.07-.26-1.77-2.96,3.52-6.1,3.41,.05h.03l2.06,2.05Z"/><polygon class="e" points="312.13 74.08 310.17 76.14 310.13 76.14 303.62 72.38 305.58 70.3 312.12 74.08 312.13 74.08"/><polygon class="e" points="310.13 76.14 306.71 76.09 300.18 72.31 303.62 72.38 310.13 76.14"/><polygon class="e" points="306.71 76.09 303.19 82.19 303.18 82.2 296.65 78.42 300.18 72.31 306.71 76.09"/><polygon class="e" points="303.19 82.19 304.97 85.15 298.43 81.38 296.65 78.42 303.18 82.2 303.19 82.19"/><polygon class="e" points="304.97 85.15 304.9 85.41 304.16 87.88 304.15 87.88 297.61 84.11 298.43 81.38 304.97 85.15"/><polygon class="e" points="304.16 96.38 304.97 98.17 303.19 103.2 296.65 99.41 297.97 95.73 297.98 95.72 300.46 97.15 304.16 96.38"/><polygon class="e" points="304.15 87.88 300.46 91.39 293.91 87.61 297.61 84.11 304.15 87.88"/><path class="e" d="M300.46,91.39v5.76l-2.48-1.43-4.07-2.33v-5.77l6.55,3.78Z"/></g><g><path class="g" d="M307.82,85.71c-.05,.16-.12,.33-.18,.51-1,3.11-1.21,8.19,1.92,10,2.24,1.28,5.39,.38,8.26-2.05,1.56-1.31,3.03-3.07,4.23-5.16,.86-1.5,1.5-3.02,1.94-4.5,1.28-4.42,.64-8.42-1.94-9.91-2.68-1.53-6.62,.04-9.84,3.59"/><line class="g" x1="331.16" y1="73.66" x2="327.12" y2="71.32"/><line class="g" x1="298.43" y1="81.38" x2="304.97" y2="85.15"/><polyline class="g" points="293.91 93.38 297.98 95.72 300.46 97.15"/><path class="g" d="M312.08,78.34c-.91,1.01-1.76,2.17-2.51,3.47-.75,1.28-1.34,2.61-1.75,3.9"/><polyline class="g" points="328.43 88.62 326.64 85.67 326.74 85.33 327.46 82.93 331.16 79.43"/><path class="g" d="M324.89,94.72c1.19-2.02,2.36-4.05,3.54-6.1"/><polyline class="g" points="318.32 101.69 319.49 96.74 321.46 94.66 324.89 94.72"/><path class="g" d="M313.31,104.57c1.68-.96,3.34-1.92,5.01-2.88"/><polyline class="g" points="306.71 105.23 309.27 102.24 310.17 101.19 312.13 100.98 313.31 104.57"/><path class="g" d="M303.19,103.2c1.17,.68,2.35,1.35,3.52,2.03"/><polyline class="g" points="303.19 82.19 304.97 85.15 304.9 85.41 304.16 87.88 304.15 87.88 300.46 91.39 300.46 97.15 304.16 96.38 304.97 98.17 303.19 103.2"/><polyline class="g" points="313.31 69.13 312.13 74.08 310.17 76.14 310.13 76.14 306.71 76.09"/><line class="g" x1="318.32" y1="66.23" x2="318.3" y2="66.23"/><polyline class="g" points="324.89 65.59 321.44 69.63 319.49 69.82 318.96 68.2 318.32 66.23"/><path class="g" d="M328.43,67.63c-1.17-.68-2.35-1.36-3.54-2.03"/><polyline class="g" points="331.16 79.43 331.16 73.66 327.46 74.44 326.64 72.63 327.12 71.32 328.43 67.63"/><line class="g" x1="313.31" y1="104.57" x2="309.27" y2="102.24"/><polyline class="g" points="297.97 95.73 296.65 99.41 303.19 103.2"/><path class="g" d="M293.91,87.61v5.77"/><line class="g" x1="300.46" y1="91.39" x2="293.91" y2="87.61"/><polyline class="g" points="304.15 87.88 297.61 84.11 293.91 87.61"/><polyline class="g" points="303.18 82.2 296.65 78.42 298.43 81.38 297.61 84.11"/><polyline class="g" points="303.18 82.2 303.19 82.19 306.71 76.09 300.18 72.31 296.65 78.42"/><polyline class="g" points="310.15 76.16 310.13 76.14 303.62 72.38 300.18 72.31"/><polyline class="g" points="312.12 74.08 305.58 70.3 303.62 72.38"/><polyline class="g" points="313.31 69.13 306.76 65.35 305.58 70.3"/><polyline class="g" points="313.31 69.13 318.3 66.23 315.82 64.8 311.76 62.47 306.76 65.35"/><line class="g" x1="321.44" y1="69.63" x2="318.96" y2="68.2"/><polyline class="g" points="315.82 64.8 318.36 61.81 324.89 65.59"/><path class="g" d="M316.83,77.17c-3.7,1.53-6.59,5.91-7.44,9.7-.7,3.03-.14,5.69,1.68,6.74,2.62,1.52,6.87-.93,9.49-5.46,.91-1.73,1.32-2.76,1.76-4.67,.33-1.65,.31-3.62-.57-5.1-1.3-1.86-2.93-1.92-4.91-1.21Z"/><path class="g" d="M313.58,89.27c-1.23-.71-1.23-3.02,0-5.16,1.23-2.13,3.23-3.29,4.46-2.58,.37,.2,.72,.72,.81,1.15,.12,.42,.14,.91,.1,1.35-.11,1.41-1.02,3.19-2.06,4.19-.42,.51-1.31,1.05-1.94,1.19-.44,.14-.98,.11-1.36-.14Z"/></g></g><polygon class="d" points="421.59 10.79 348.8 52.82 312.54 73.76 276.28 52.82 203.49 10.79 221.75 .25 403.33 .25 421.59 10.79"/></g></g></g></svg>